<?xml version="1.0" encoding="UTF-8"?>
<svg viewBox="0 0 293.33234 393.30801" xmlns="http://www.w3.org/2000/svg">
 <g transform="translate(-179.08 -298.51)">
  <path d="m322.08 376.02c1.5-30.5 39-75 45.5-75.5s-14 70.5-19.5 75.5-25.5 1.5-26 0z" fill="#784421" fill-rule="evenodd" stroke="#000" stroke-linejoin="round" stroke-width="4"/>
  <path transform="translate(179.08 298.51)" d="m188.5 2c-0.51578 0.03968-1.2523 0.37271-2.125 0.9375-0.95373 13.17-22.907 66.265-28.156 70.125-2.9616 2.1777-9.2483 1.9409-14.875 0.9375-0.15403 1.1804-0.28749 2.356-0.34375 3.5 0.5 1.5 20.5 5 26 0s26-76 19.5-75.5z" fill-opacity=".31373" fill-rule="evenodd"/>
  <path transform="matrix(1.8148 0 0 1.8148 -283.47 -459.58)" d="m403.52 522.31a67.988 67.988 0 1 1 -135.98 0 67.988 67.988 0 1 1 135.98 0z" fill="#a05a2c" stroke="#000" stroke-linecap="round" stroke-linejoin="round" stroke-width="2.2041"/>
  <path transform="matrix(1.403 0 0 1.403 -140.29 -263.97)" d="m403.52 522.31a67.988 67.988 0 1 1 -135.98 0 67.988 67.988 0 1 1 135.98 0z" fill-opacity=".31373"/>
  <path d="m434.03 429.69c3.2019 10.975 4.9062 22.589 4.9062 34.594 1e-5 68.109-55.266 123.38-123.38 123.38-46.825 0-87.598-26.132-108.5-64.594 15.023 51.2 62.367 88.625 118.41 88.625 68.109 0 123.38-55.266 123.38-123.38 0-21.21-5.3732-41.186-14.812-58.625z" fill-opacity=".31373"/>
  <path d="m409.5 608.24c0 21.545-17.486 20.774-39.03 20.774s-39.03 0.77052-39.03-20.774 17.486-39.03 39.03-39.03 39.03 17.486 39.03 39.03z" fill="#a05a2c" stroke="#000" stroke-linecap="round" stroke-linejoin="round" stroke-width="4"/>
  <path d="m319.48 608.24c0 21.545-17.486 20.774-39.03 20.774-11.98 0-22.705 0.23824-29.866-3.2543-5.7178-2.7884-9.1641-7.9551-9.1641-17.52 0-21.545 17.486-39.03 39.03-39.03s39.03 17.486 39.03 39.03z" fill="#a05a2c" stroke="#000" stroke-linecap="round" stroke-linejoin="round" stroke-width="4"/>
  <g transform="matrix(-1 0 0 1 652.15 -2.8284)" fill="none" stroke="#000" stroke-linecap="round" stroke-width="4">
   <path d="m357.34 628.69c-3.5026-11.331 0.50038-24.551 0.50038-24.551"/>
   <path d="m375.37 631.21c4.293-18.256-0.61329-32.735-0.61329-32.735"/>
   <path d="m393.62 629.32c8.8133-13.849 1.259-25.181 1.259-25.181"/>
  </g>
  <path transform="matrix(1.403 0 0 1.403 -145.29 -277.47)" d="m403.52 522.31a67.988 67.988 0 1 1 -135.98 0 67.988 67.988 0 1 1 135.98 0z" fill="#a05a2c" stroke="#000" stroke-linecap="round" stroke-linejoin="round" stroke-width="2.8511"/>
  <path transform="translate(179.08 298.51)" d="m233.44 117.75c1.5257 6.7692 2.3438 13.803 2.3438 21.031 0 52.653-42.753 95.406-95.406 95.406-38.776 0-72.153-23.191-87.062-56.438 9.5551 42.587 47.605 74.438 93.062 74.438 52.653 0 95.406-42.753 95.406-95.406 0-13.912-2.9826-27.11-8.3438-39.031z" fill-opacity=".31373"/>
  <path transform="matrix(.40278 0 0 .40278 158.81 226.93)" d="m403.52 522.31a67.988 67.988 0 1 1 -135.98 0 67.988 67.988 0 1 1 135.98 0z" fill="#fff" stroke="#000" stroke-linecap="round" stroke-linejoin="round" stroke-width="9.931"/>
  <path transform="matrix(.40278 0 0 .40278 222.39 226.93)" d="m403.52 522.31a67.988 67.988 0 1 1 -135.98 0 67.988 67.988 0 1 1 135.98 0z" fill="#fff" stroke="#000" stroke-linecap="round" stroke-linejoin="round" stroke-width="9.931"/>
  <path transform="matrix(.125 0 0 .125 260.2 375.16)" d="m403.52 522.31a67.988 67.988 0 1 1 -135.98 0 67.988 67.988 0 1 1 135.98 0z"/>
  <path transform="matrix(.125 0 0 .125 306.78 375.16)" d="m403.52 522.31a67.988 67.988 0 1 1 -135.98 0 67.988 67.988 0 1 1 135.98 0z"/>
  <path d="m350.81 501.75c0 13.776-15.086 24.956-25.067 24.956-10.752 0-25.067-11.18-25.067-24.956s11.23-17.277 25.067-17.277 25.067 3.5015 25.067 17.277z"/>
  <path d="m390.97 575.03c4.7228 6.48 7.5312 14.467 7.5312 23.094 1e-5 12.466-5.8352 23.559-14.906 30.75 15.081-0.57257 25.906-3.6938 25.906-20.625 0-14.032-7.4066-26.34-18.531-33.219z" fill-opacity=".31373"/>
  <g transform="translate(-.14728 -2.8284)" fill="none" stroke="#000" stroke-linecap="round" stroke-width="4">
   <path d="m357.34 628.69c-3.5026-11.331 0.50038-24.551 0.50038-24.551"/>
   <path d="m375.37 631.21c4.293-18.256-0.61329-32.735-0.61329-32.735"/>
   <path d="m393.62 629.32c8.8133-13.849 1.259-25.181 1.259-25.181"/>
  </g>
  <path d="m300.47 575.03c4.7228 6.48 7.5312 14.467 7.5312 23.094 1e-5 12.466-5.8352 23.559-14.906 30.75 15.081-0.57257 25.906-3.6938 25.906-20.625 0-14.032-7.4066-26.34-18.531-33.219z" fill-opacity=".31373"/>
  <path d="m336.66 588.75c-3.3125 5.7348-5.2188 12.406-5.2188 19.5 0 17.505 11.553 20.263 27.438 20.688-15.78-6.578-23.805-22.208-22.219-40.188z" fill-opacity=".31373"/>
  <path d="m258.29 386.52c-54.92-3.8741-83.529 62.302-76.029 81.802 6.0974 15.853 39.788 31.843 38.429 17.303-4.4099-47.184 54.734-97.896 37.601-99.105z" fill="#784421" fill-rule="evenodd" stroke="#000" stroke-linejoin="round" stroke-width="4"/>
  <path d="m393.2 386.52c54.92-3.8741 83.529 62.302 76.029 81.802-6.0974 15.853-39.788 31.843-38.429 17.303 4.4099-47.184-54.734-97.896-37.601-99.105z" fill="#784421" fill-rule="evenodd" stroke="#000" stroke-linejoin="round" stroke-width="4"/>
  <path transform="translate(179.08 298.51)" d="m219.19 87.844c50.899 10.295 64.66 77.406 53.75 94.531-2.4181 3.7956-6.7552 7.1892-11.719 9.9062 10.085-2.3312 25.067-12.407 28.938-22.469 7.2656-18.891-19.367-81.591-70.969-81.969z" fill-opacity=".31373" fill-rule="evenodd"/>
  <path d="m290.79 670.83 72.767-15.76s12.424 19.954 26.82 8.5843-5.7408-22.662-5.7408-22.662 20.217-11.035 0.3443-20.938-26.505 15.827-26.505 15.827l-70.516 12.454s-18.342-24.588-31.815-8.356 5.0107 26.399 5.0107 26.399-14.827 12.89 4.0876 21.536 24.553-14.737 25.547-17.084z" fill="#e3dbdb" fill-rule="evenodd" stroke="#000" stroke-linejoin="round" stroke-width="4"/>
  <path d="m277.36 638.23c1.9776 1.8854 3.8365 3.8167 5.6464 5.4489l0.70614-0.13403c-1.74-1.7401-3.8985-3.6697-6.3525-5.3149zm108.93-17.495c0.33338 0.46089 0.63558 0.95669 0.91124 1.4492 2.0148 6.0202-6.3944 10.954-9.5075 14.303 1.1273 2.2098 3.8932 3.6754 6.117 5.5822 1.9142-1.105 19.07-12.177 2.4792-21.335zm-134.02 35.935c0.90937 2.2292 2.3067 4.124 3.7386 5.6202 1.9009-2.2584-1.5724-3.8027-3.7386-5.6202zm134.14-14.55c0.44157 0.51308 0.82089 1.0873 1.1172 1.6964 6.0344 7.7081-3.9762 17.179-11.876 16.695-7.7556-0.16903-10.841-7.6641-15.723-12.379-24.259 5.2512-50.254 10.832-74.513 16.083-2.4769 4.0513-3.3441 9.3305-6.6495 13.063-4.9502 7.839-15.93 7.0292-22.552 1.6724-0.13169-0.07083-0.2395-0.17308-0.36529-0.24874 0.67663 3.1274 3.2485 6.3997 9.4154 9.2184 18.914 8.6453 24.548-14.746 25.542-17.094l74.513-16.083c-1e-5 1e-5 10.689 20.285 25.085 8.9161 11.697-9.2375 0.58086-18.419-3.9929-21.539z" fill-opacity=".31373" fill-rule="evenodd"/>
 </g>
</svg>
